<?xml version="1.0" encoding="utf-8"?>
<!-- Generator: Adobe Illustrator 20.1.0, SVG Export Plug-In . SVG Version: 6.00 Build 0)  -->
<svg version="1.1" id="Layer_1" xmlns="http://www.w3.org/2000/svg" xmlns:xlink="http://www.w3.org/1999/xlink" x="1000px" y="100px"
	 viewBox="0 0 36 36" style="enable-background:new 0 0 36 36;" xml:space="preserve">
<style type="text/css">
	.st0{fill:none;}
	.st1{fill:#DA5656;}
	.st2{fill:none;stroke:#DA5656;stroke-width:2.5;stroke-miterlimit:10;}
</style>
<g id="Layer_1_1_">
	<path class="st0" d="M6,5h24v26H6V5z"/>
	<path class="st1" d="M10.2,24.5h15.6c0.3,0,0.5-0.3,0.5-0.8v-1.5c0-0.4-0.2-0.8-0.5-0.8H10.2c-0.3,0-0.5,0.3-0.5,0.8v1.5
		C9.8,24.1,10,24.5,10.2,24.5z M10.2,19.5h15.6c0.3,0,0.5-0.3,0.5-0.8v-1.5c0-0.4-0.2-0.8-0.5-0.8H10.2c-0.3,0-0.5,0.3-0.5,0.8v1.5
		C9.8,19.2,10,19.5,10.2,19.5z M9.8,12.3v1.5c0,0.4,0.2,0.8,0.5,0.8h15.6c0.3,0,0.5-0.3,0.5-0.8v-1.5c0-0.4-0.2-0.8-0.5-0.8H10.2
		C10,11.5,9.8,11.9,9.8,12.3z"/>
</g>
<g id="Layer_2">
	<circle class="st2" cx="18" cy="18" r="15.5"/>
</g>
</svg>
